<svg xmlns="http://www.w3.org/2000/svg" viewBox="0 0 95 63"><defs><style>.cls-1{fill:#fff;}</style></defs><title>sadmug</title><g id="Layer_2" data-name="Layer 2"><g id="g2591"><path id="path2567" class="cls-1" d="M56.07,29.92,77.9,30c4.43,0,7.55-.68,10.15-2.2,4.47-2.64,6.83-6.95,6.83-12.47S92.56,5.36,88.21,2.76C85.37,1.08,82.25.45,76.9.44L56.07.4Zm3-2.67V3.08l18,0c4.43,0,7.35.6,9.51,1.88a11.57,11.57,0,0,1,5.35,10.18,11.92,11.92,0,0,1-4.23,9.47c-2.36,1.88-5.4,2.65-10.63,2.64Z"/><path id="path2569" class="cls-1" d="M-.2,63h3V36.71L13.82,63h2.56l11.1-26.29V63h3V33.48H25.85L15.14,58.61,4.39,33.48H-.2Z"/><path id="path2571" class="cls-1" d="M74.82,48.86v2.67h16.5a10.68,10.68,0,0,1-3.11,5.24,12.35,12.35,0,0,1-8.83,3.51,12.57,12.57,0,1,1,0-25.12,11.55,11.55,0,0,1,10.42,5.67h3.32c-2-5-7.55-8.39-14-8.39-8.79,0-15.66,6.67-15.66,15.22S70.43,63,79.5,63A14.73,14.73,0,0,0,91,58a15.11,15.11,0,0,0,3.88-9.15Z"/><g id="g2579"><path id="path2573" class="cls-1" d="M33.58,29.92V21.3c0-3.79.6-6,2.08-8a9.82,9.82,0,0,1,8-3.63,9.84,9.84,0,0,1,8,3.63c1.48,2,2.08,4.2,2.08,8v8.62h-3V21.3a11.18,11.18,0,0,0-1.36-6.11,6.79,6.79,0,0,0-5.75-2.79,6.77,6.77,0,0,0-5.71,2.79,11.18,11.18,0,0,0-1.36,6.11v8.62Z"/><path id="path2575" class="cls-1" d="M50.72.4h3V8.24h-3Z"/><path id="path2577" class="cls-1" d="M33.58.4h3V8.24h-3Z"/></g><path id="path2581" class="cls-1" d="M33.58,42.76v8.61c0,3.8.6,6,2.08,8a9.8,9.8,0,0,0,8,3.64,9.82,9.82,0,0,0,8-3.64c1.48-2,2.08-4.19,2.08-8V42.76h-3v8.61a11.19,11.19,0,0,1-1.36,6.12,6.82,6.82,0,0,1-5.75,2.79,6.77,6.77,0,0,1-5.71-2.79,11.19,11.19,0,0,1-1.36-6.12V42.76Z"/><path id="path2583" class="cls-1" d="M54.55,45.75v1h2.22a4,4,0,0,1,2.18.49,2.6,2.6,0,0,1,0,4.08,4,4,0,0,1-2.18.49H54.55c0,.36,0,.71,0,1h2.25a4.39,4.39,0,0,0,2.85-.74,3.77,3.77,0,0,0,0-5.68,4.39,4.39,0,0,0-2.85-.74Z"/><path id="path2585" class="cls-1" d="M48,44.89c-3,0-2.76,2.9-5.32,4.17-1.68.83-3.75-.8-5.23-2.38v4.69A10.2,10.2,0,0,0,38.68,57a5.83,5.83,0,0,0,4.93,2.38,5.86,5.86,0,0,0,5-2.37,10.27,10.27,0,0,0,1.21-5.61V45.12h0A7.05,7.05,0,0,0,48,44.89Z"/><path id="path2587" class="cls-1" d="M7.67,0C2.88.12-.2,3.44-.2,8.27v.08c0,4.71,3.26,8.19,7.87,8.19h14.9c3.24.24,5.15,2.2,5.15,5.19v.11a5,5,0,0,1-5.15,5.09v3c4.61,0,7.83-3.4,7.87-8.11v-.08c0-4.83-3.08-8.15-7.87-8.27H7.67A5,5,0,0,1,2.52,8.38V8.27c0-3,1.91-4.95,5.15-5.19Z"/><path id="path2589" class="cls-1" d="M41.22,34.19a2.5,2.5,0,0,0-2.55,2.67v0a2.53,2.53,0,0,0,2.55,2.65H46a1.62,1.62,0,0,1,1.67,1.68v0A1.61,1.61,0,0,1,46,42.9v1a2.51,2.51,0,0,0,2.55-2.63v0A2.5,2.5,0,0,0,46,38.54H41.22a1.61,1.61,0,0,1-1.67-1.64v0a1.62,1.62,0,0,1,1.67-1.68Z"/></g></g></svg>